<svg width="1405" height="146" viewBox="0 0 1405 146" fill="none" xmlns="http://www.w3.org/2000/svg">
<path d="M170.812 25.5625L166.094 23.8125V21.1875H178.312C178.167 21.7292 178.042 22.3021 177.938 22.9062C177.854 23.4896 177.781 24.1771 177.719 24.9688C177.656 25.7396 177.615 26.6458 177.594 27.6875C177.573 28.7292 177.552 29.9792 177.531 31.4375C177.531 32.8958 177.531 34.5938 177.531 36.5312C177.531 38.4688 177.531 40.7188 177.531 43.2812V51.1875C177.531 53.3958 177.656 55.2917 177.906 56.875C178.177 58.4375 178.646 59.7292 179.312 60.75C179.979 61.75 180.896 62.4896 182.062 62.9688C183.25 63.4271 184.771 63.6562 186.625 63.6562C188.021 63.6562 189.344 63.5521 190.594 63.3438C191.844 63.1146 193.031 62.7812 194.156 62.3438C195.302 61.8854 196.406 61.3229 197.469 60.6562C198.552 59.9688 199.615 59.1667 200.656 58.25V25.5625L197.125 23.8125V21.1875H212.188V23.8125C211.646 24.0417 211.083 24.2292 210.5 24.375C209.938 24.5208 209.427 24.7604 208.969 25.0938C208.51 25.4271 208.135 25.9271 207.844 26.5938C207.552 27.2396 207.406 28.1875 207.406 29.4375V45.5C207.427 47.5417 207.448 49.3229 207.469 50.8438C207.49 52.3646 207.5 53.7083 207.5 54.875C207.521 56.0208 207.542 57.0417 207.562 57.9375C207.604 58.8125 207.635 59.625 207.656 60.375C207.698 61.1042 207.75 61.8125 207.812 62.5C207.875 63.1875 207.948 63.9271 208.031 64.7188L212.594 66.4375V69H201.344C201.302 68.2083 201.271 67.4062 201.25 66.5938C201.208 65.9062 201.177 65.1771 201.156 64.4062C201.156 63.6146 201.146 62.8854 201.125 62.2188C200.75 62.6354 200.25 63.1146 199.625 63.6562C199.021 64.1771 198.312 64.7083 197.5 65.25C196.708 65.7917 195.823 66.3333 194.844 66.875C193.885 67.3958 192.865 67.8646 191.781 68.2812C190.719 68.6771 189.615 69 188.469 69.25C187.323 69.5 186.177 69.625 185.031 69.625C184.01 69.625 182.948 69.5833 181.844 69.5C180.76 69.4167 179.688 69.2188 178.625 68.9062C177.583 68.5938 176.583 68.125 175.625 67.5C174.688 66.875 173.854 66.0312 173.125 64.9688C172.417 63.8854 171.854 62.5521 171.438 60.9688C171.021 59.3646 170.812 57.4271 170.812 55.1562V25.5625ZM235.999 47.5625C235.645 47.0208 235.311 46.4792 234.999 45.9375C234.707 45.3958 234.509 44.9688 234.405 44.6562L249.092 25.375L244.342 23.8125V21.1875H261.874V23.8125C261.124 24.0208 260.457 24.2083 259.874 24.375C259.311 24.5208 258.759 24.6562 258.217 24.7812C257.676 24.8854 257.134 24.9792 256.592 25.0625C256.051 25.1458 255.436 25.2188 254.749 25.2812L239.967 43.2812C240.197 43.5938 240.488 44 240.842 44.5C241.197 45 241.686 45.6667 242.311 46.5C242.957 47.3125 243.78 48.3438 244.78 49.5938C245.78 50.8438 247.03 52.3854 248.53 54.2188C249.217 55.0521 249.967 55.9271 250.78 56.8438C251.592 57.7604 252.436 58.6771 253.311 59.5938C254.207 60.4896 255.103 61.3646 255.999 62.2188C256.915 63.0521 257.801 63.8125 258.655 64.5C259.53 65.1875 260.363 65.7812 261.155 66.2812C261.947 66.7812 262.655 67.125 263.28 67.3125L263.249 69.6875C261.686 69.6875 260.134 69.6667 258.592 69.625C257.051 69.5833 255.54 69.3125 254.061 68.8125C252.29 67.875 250.645 66.6979 249.124 65.2812C247.603 63.8646 246.124 62.25 244.686 60.4375C243.27 58.6042 241.853 56.6042 240.436 54.4375C239.02 52.2708 237.54 49.9792 235.999 47.5625ZM220.561 66.4375C221.645 66.1458 222.53 65.875 223.217 65.625C223.926 65.375 224.478 65.0312 224.874 64.5938C225.29 64.1562 225.572 63.5729 225.717 62.8438C225.863 62.1146 225.936 61.125 225.936 59.875V25.5625L220.561 23.8125V21.1875H238.092V23.8125C236.988 24.1042 236.082 24.375 235.374 24.625C234.686 24.875 234.145 25.2188 233.749 25.6562C233.353 26.0938 233.072 26.6771 232.905 27.4062C232.759 28.1354 232.686 29.125 232.686 30.375V64.7188L238.092 66.4375V69H220.561V66.4375ZM291.402 66.4375C292.486 66.1458 293.34 65.875 293.965 65.625C294.59 65.375 295.059 65.0312 295.371 64.5938C295.684 64.1562 295.871 63.5729 295.934 62.8438C296.017 62.1146 296.059 61.125 296.059 59.875V25.5625L291.559 23.8125V21.25H307.715V23.8125C306.611 24.1042 305.736 24.375 305.09 24.625C304.444 24.875 303.955 25.2188 303.621 25.6562C303.288 26.0938 303.069 26.6771 302.965 27.4062C302.861 28.1354 302.809 29.125 302.809 30.375V64.7188L307.715 66.4375V69H291.402V66.4375ZM312.401 66.4375C313.485 66.1458 314.318 65.8646 314.901 65.5938C315.485 65.3229 315.932 64.9688 316.245 64.5312C316.557 64.0938 316.807 63.5208 316.995 62.8125C317.203 62.0833 317.464 61.1042 317.776 59.875L318.182 58.25L322.339 27.6562C322.235 27.0312 322.078 26.5208 321.87 26.125C321.662 25.7083 321.36 25.3646 320.964 25.0938C320.589 24.8229 320.11 24.5938 319.526 24.4062C318.943 24.1979 318.224 23.9792 317.37 23.75V21.1875H329.932V22.4062L344.089 57.9062L357.432 22L357.339 21.1875H369.995V23.8125C368.891 24.1042 367.985 24.3646 367.276 24.5938C366.589 24.8021 366.047 25.1042 365.651 25.5C365.255 25.8958 364.974 26.4375 364.807 27.125C364.662 27.8125 364.589 28.7812 364.589 30.0312L369.807 64.6875L375.526 66.4062V69H357.682V66.4062C358.766 66.1146 359.641 65.8438 360.307 65.5938C360.974 65.3438 361.485 65 361.839 64.5625C362.214 64.125 362.453 63.5417 362.557 62.8125C362.682 62.0833 362.745 61.0938 362.745 59.8438L358.651 30.375C358.651 30.3333 358.641 30.2917 358.62 30.25C358.62 30.1875 358.62 30.1354 358.62 30.0938L344.776 67.3125C344.776 67.4792 344.755 67.6458 344.714 67.8125C344.672 67.9792 344.599 68.1146 344.495 68.2188L341.62 69.3125L326.276 29.9375L322.807 57L322.651 64.7188L328.057 66.4375V69H312.401V66.4375ZM377.556 66.4375C378.64 66.1458 379.473 65.8646 380.056 65.5938C380.64 65.3229 381.087 64.9688 381.4 64.5312C381.712 64.0938 381.962 63.5208 382.15 62.8125C382.358 62.0833 382.619 61.1042 382.931 59.875L383.337 58.25L387.494 27.6562C387.39 27.0312 387.233 26.5208 387.025 26.125C386.817 25.7083 386.515 25.3646 386.119 25.0938C385.744 24.8229 385.265 24.5938 384.681 24.4062C384.098 24.1979 383.379 23.9792 382.525 23.75V21.1875H395.087V22.4062L409.244 57.9062L422.587 22L422.494 21.1875H435.15V23.8125C434.046 24.1042 433.14 24.3646 432.431 24.5938C431.744 24.8021 431.202 25.1042 430.806 25.5C430.41 25.8958 430.129 26.4375 429.962 27.125C429.817 27.8125 429.744 28.7812 429.744 30.0312L434.962 64.6875L440.681 66.4062V69H422.837V66.4062C423.921 66.1146 424.796 65.8438 425.462 65.5938C426.129 65.3438 426.64 65 426.994 64.5625C427.369 64.125 427.608 63.5417 427.712 62.8125C427.837 62.0833 427.9 61.0938 427.9 59.8438L423.806 30.375C423.806 30.3333 423.796 30.2917 423.775 30.25C423.775 30.1875 423.775 30.1354 423.775 30.0938L409.931 67.3125C409.931 67.4792 409.91 67.6458 409.869 67.8125C409.827 67.9792 409.754 68.1146 409.65 68.2188L406.775 69.3125L391.431 29.9375L387.962 57L387.806 64.7188L393.212 66.4375V69H377.556V66.4375ZM445.617 66.4375C446.701 66.1458 447.555 65.875 448.18 65.625C448.805 65.375 449.274 65.0312 449.586 64.5938C449.899 64.1562 450.086 63.5729 450.149 62.8438C450.232 62.1146 450.274 61.125 450.274 59.875V25.5625L445.774 23.8125V21.25H461.93V23.8125C460.826 24.1042 459.951 24.375 459.305 24.625C458.659 24.875 458.17 25.2188 457.836 25.6562C457.503 26.0938 457.284 26.6771 457.18 27.4062C457.076 28.1354 457.024 29.125 457.024 30.375V64.7188L461.93 66.4375V69H445.617V66.4375ZM469.397 46C469.397 43.9167 469.647 41.8438 470.147 39.7812C470.647 37.6979 471.377 35.7188 472.335 33.8438C473.293 31.9479 474.47 30.1979 475.866 28.5938C477.283 26.9688 478.897 25.5625 480.71 24.375C482.522 23.1875 484.522 22.2604 486.71 21.5938C488.897 20.9062 491.262 20.5625 493.804 20.5625C496.012 20.5625 498.085 20.7188 500.022 21.0312C501.981 21.3229 503.71 21.6458 505.21 22C506.96 22.4167 508.575 22.8958 510.054 23.4375L508.866 35.25H505.647L504.085 28.4688C503.231 27.7812 502.283 27.2292 501.241 26.8125C500.2 26.3958 499.095 26.0729 497.929 25.8438C496.783 25.6146 495.606 25.4688 494.397 25.4062C493.189 25.3229 492.012 25.2812 490.866 25.2812C490.012 25.2812 489.127 25.375 488.21 25.5625C487.293 25.7292 486.397 25.9792 485.522 26.3125C484.647 26.625 483.835 27 483.085 27.4375C482.335 27.8542 481.7 28.3125 481.179 28.8125C480.491 29.7083 479.845 30.6875 479.241 31.75C478.658 32.7917 478.147 33.9271 477.71 35.1562C477.272 36.3646 476.929 37.6562 476.679 39.0312C476.429 40.3854 476.304 41.8125 476.304 43.3125C476.304 45.2083 476.47 47.0625 476.804 48.875C477.137 50.6875 477.627 52.3958 478.272 54C478.939 55.6042 479.772 57.0938 480.772 58.4688C481.772 59.8229 482.929 60.9896 484.241 61.9688C485.554 62.9479 487.022 63.7188 488.647 64.2812C490.293 64.8229 492.095 65.0938 494.054 65.0938C495.137 65.0938 496.075 65.0729 496.866 65.0312C497.679 64.9896 498.408 64.9271 499.054 64.8438C499.72 64.7396 500.345 64.6042 500.929 64.4375C501.533 64.2708 502.168 64.0625 502.835 63.8125V51.2188L496.991 49.5V46.9062H512.647V49.5C512.168 49.625 511.731 49.7708 511.335 49.9375C510.939 50.0833 510.595 50.2708 510.304 50.5C510.033 50.7292 509.814 51.0104 509.647 51.3438C509.481 51.6562 509.397 52.0417 509.397 52.5V59.0312L509.647 65.2812C507.543 66.4688 505.481 67.3646 503.46 67.9688C501.46 68.5521 499.637 68.9688 497.991 69.2188C496.366 69.4688 494.991 69.5938 493.866 69.5938C492.762 69.6146 492.075 69.625 491.804 69.625C489.345 69.625 487.085 69.3229 485.022 68.7188C482.96 68.0938 481.095 67.2396 479.429 66.1562C477.783 65.0729 476.335 63.7917 475.085 62.3125C473.835 60.8125 472.783 59.1875 471.929 57.4375C471.095 55.6875 470.46 53.8438 470.022 51.9062C469.606 49.9688 469.397 48 469.397 46ZM520.177 66.5C521.219 66.2292 522.073 65.9792 522.74 65.75C523.407 65.5 523.927 65.1667 524.302 64.75C524.698 64.3333 524.969 63.7812 525.115 63.0938C525.261 62.3854 525.334 61.4375 525.334 60.25V25.375L520.177 23.7188V21.1875H528.802C529.511 21.1875 530.157 21.1771 530.74 21.1562C531.323 21.1146 531.896 21.0729 532.459 21.0312C533.021 20.9896 533.594 20.9375 534.177 20.875C534.782 20.8125 535.469 20.7604 536.24 20.7188C537.011 20.6771 537.886 20.6458 538.865 20.625C539.865 20.5833 541.042 20.5625 542.396 20.5625C544.334 20.5625 546.115 20.8125 547.74 21.3125C549.386 21.7917 550.792 22.5208 551.959 23.5C553.146 24.4792 554.073 25.7188 554.74 27.2188C555.407 28.6979 555.74 30.4375 555.74 32.4375C555.74 34.0417 555.459 35.6458 554.896 37.25C554.334 38.8542 553.552 40.3333 552.552 41.6875C551.573 43.0417 550.417 44.2083 549.084 45.1875C547.75 46.1458 546.302 46.7917 544.74 47.125C544.99 47.7083 545.302 48.3958 545.677 49.1875C546.073 49.9792 546.521 50.8229 547.021 51.7188C547.521 52.6146 548.073 53.5312 548.677 54.4688C549.302 55.3854 549.969 56.2812 550.677 57.1562C551.677 58.4062 552.709 59.6042 553.771 60.75C554.834 61.875 555.886 62.8958 556.927 63.8125C557.969 64.7292 559 65.5208 560.021 66.1875C561.063 66.8542 562.052 67.3333 562.99 67.625L562.959 69.2188C562.23 69.2188 561.417 69.2188 560.521 69.2188C559.625 69.2188 558.813 69.2083 558.084 69.1875C557.355 69.1875 556.625 69.1562 555.896 69.0938C555.167 69.0521 554.459 68.9583 553.771 68.8125C552.646 68.6042 551.636 68.2083 550.74 67.625C549.865 67.0417 549.052 66.3333 548.302 65.5C547.573 64.6667 546.875 63.75 546.209 62.75C545.563 61.7292 544.886 60.6771 544.177 59.5938C543.615 58.6979 543.084 57.7917 542.584 56.875C542.105 55.9375 541.636 54.9896 541.177 54.0312C540.719 53.0521 540.261 52.0625 539.802 51.0625C539.344 50.0417 538.865 49.0104 538.365 47.9688C537.615 47.9479 536.74 47.8958 535.74 47.8125C534.74 47.7292 533.521 47.5938 532.084 47.4062V64.875L537.959 66.5V68.9688H520.177V66.5ZM532.084 44.125C533.188 44.3333 534.344 44.4792 535.552 44.5625C536.761 44.625 537.948 44.6146 539.115 44.5312C540.302 44.4271 541.427 44.25 542.49 44C543.573 43.75 544.532 43.3958 545.365 42.9375C545.844 42.4792 546.302 41.9688 546.74 41.4062C547.177 40.8438 547.563 40.1979 547.896 39.4688C548.23 38.7396 548.49 37.9167 548.677 37C548.886 36.0625 548.99 35 548.99 33.8125C548.99 32.2292 548.709 30.8125 548.146 29.5625C547.605 28.3125 546.844 27.2604 545.865 26.4062C544.886 25.5312 543.719 24.8646 542.365 24.4062C541.011 23.9479 539.532 23.7188 537.927 23.7188C536.552 23.7188 535.469 23.8229 534.677 24.0312C533.907 24.2188 533.323 24.5729 532.927 25.0938C532.552 25.6146 532.313 26.3333 532.209 27.25C532.125 28.1458 532.084 29.2917 532.084 30.6875V44.125ZM562.395 66.4375C563.457 66.1458 564.405 65.8854 565.239 65.6562C566.093 65.4271 566.822 65.1042 567.426 64.6875L583.395 24.5L580.676 23.5L580.645 21.9375C581.541 21.7292 582.291 21.5521 582.895 21.4062C583.52 21.2604 584.124 21.1146 584.707 20.9688C585.291 20.8021 585.926 20.625 586.614 20.4375C587.301 20.25 588.176 20 589.239 19.6875C589.51 20.4167 589.76 21.0625 589.989 21.625C590.239 22.1875 590.51 22.8021 590.801 23.4688C591.093 24.1146 591.437 24.8854 591.832 25.7812C592.228 26.6562 592.718 27.7708 593.301 29.125C593.885 30.4792 594.582 32.1354 595.395 34.0938C596.228 36.0521 597.228 38.4479 598.395 41.2812C599.562 44.1146 600.916 47.4479 602.457 51.2812C604.02 55.0938 605.822 59.5312 607.864 64.5938L607.52 64.7188L612.707 66.4375V69H594.082V66.4375C594.812 66.25 595.478 66.0729 596.082 65.9062C596.687 65.7396 597.218 65.5521 597.676 65.3438C598.155 65.1354 598.572 64.8958 598.926 64.625C599.28 64.3333 599.572 63.9792 599.801 63.5625C599.447 62.625 598.947 61.3229 598.301 59.6562C597.655 57.9688 596.801 55.7708 595.739 53.0625H576.989L572.676 64.9688L579.02 66.4375V69H562.395V66.4375ZM594.27 49.2812L585.989 28.4688C585.739 28.9479 585.478 29.5938 585.207 30.4062L578.364 49.2812H594.27ZM624.05 66.4375C625.217 66.2292 626.237 66.0104 627.112 65.7812C628.008 65.5312 628.748 65.1771 629.331 64.7188C629.915 64.2604 630.352 63.6562 630.644 62.9062C630.935 62.1354 631.081 61.125 631.081 59.875V25.3125C630.04 25.3542 628.623 25.4062 626.831 25.4688C625.06 25.5312 622.769 25.625 619.956 25.75L617.081 33.5H614.144L614.769 20.5938L618.894 21.1875H649.894L654.019 20.5938L653.206 33.5H650.269L648.831 25.75C646.31 25.6458 644.206 25.5625 642.519 25.5C640.831 25.4375 639.446 25.3854 638.362 25.3438C638.154 25.6354 638.008 26.0417 637.925 26.5625C637.862 27.0833 637.831 27.8021 637.831 28.7188V64.7188L645.112 66.4375V69H624.05V66.4375ZM660.142 66.4375C661.226 66.1458 662.08 65.875 662.705 65.625C663.33 65.375 663.799 65.0312 664.111 64.5938C664.424 64.1562 664.611 63.5729 664.674 62.8438C664.757 62.1146 664.799 61.125 664.799 59.875V25.5625L660.299 23.8125V21.25H676.455V23.8125C675.351 24.1042 674.476 24.375 673.83 24.625C673.184 24.875 672.695 25.2188 672.361 25.6562C672.028 26.0938 671.809 26.6771 671.705 27.4062C671.601 28.1354 671.549 29.125 671.549 30.375V64.7188L676.455 66.4375V69H660.142V66.4375ZM683.922 46.125C683.922 44.0208 684.152 41.9271 684.61 39.8438C685.068 37.7604 685.745 35.7708 686.641 33.875C687.558 31.9792 688.683 30.2188 690.016 28.5938C691.37 26.9688 692.933 25.5625 694.704 24.375C696.495 23.1875 698.495 22.2604 700.704 21.5938C702.933 20.9062 705.36 20.5625 707.985 20.5625C710.568 20.5625 712.933 20.8646 715.079 21.4688C717.245 22.0729 719.172 22.9167 720.86 24C722.568 25.0833 724.058 26.3646 725.329 27.8438C726.6 29.3229 727.652 30.9375 728.485 32.6875C729.339 34.4375 729.975 36.2812 730.391 38.2188C730.808 40.1562 731.016 42.125 731.016 44.125C731.016 46.2292 730.787 48.3229 730.329 50.4062C729.87 52.4896 729.183 54.4792 728.266 56.375C727.37 58.25 726.245 60 724.891 61.625C723.537 63.25 721.964 64.6562 720.172 65.8438C718.402 67.0104 716.402 67.9375 714.172 68.625C711.964 69.2917 709.547 69.625 706.922 69.625C704.339 69.625 701.975 69.3229 699.829 68.7188C697.683 68.1146 695.756 67.2812 694.047 66.2188C692.339 65.1354 690.85 63.8542 689.579 62.375C688.308 60.8958 687.256 59.2917 686.422 57.5625C685.589 55.8125 684.964 53.9688 684.547 52.0312C684.131 50.0938 683.922 48.125 683.922 46.125ZM690.891 42.875C690.891 44.7083 691.047 46.5312 691.36 48.3438C691.693 50.1562 692.183 51.8854 692.829 53.5312C693.495 55.1771 694.329 56.7083 695.329 58.125C696.35 59.5417 697.547 60.7708 698.922 61.8125C700.297 62.8333 701.87 63.6354 703.641 64.2188C705.412 64.8021 707.381 65.0938 709.547 65.0938C711.36 65.0938 713.068 64.8542 714.672 64.375C716.297 63.8958 717.766 63.2708 719.079 62.5C719.912 61.3542 720.641 60.1562 721.266 58.9062C721.891 57.6354 722.402 56.3542 722.797 55.0625C723.214 53.75 723.527 52.4479 723.735 51.1562C723.943 49.8646 724.047 48.6042 724.047 47.375C724.047 45.5417 723.881 43.7188 723.547 41.9062C723.235 40.0938 722.745 38.3646 722.079 36.7188C721.433 35.0521 720.6 33.5208 719.579 32.125C718.579 30.7083 717.381 29.4792 715.985 28.4375C714.61 27.3958 713.037 26.5833 711.266 26C709.495 25.4167 707.527 25.125 705.36 25.125C703.547 25.125 701.829 25.3854 700.204 25.9062C698.6 26.4062 697.141 27.0729 695.829 27.9062C694.995 29.0521 694.266 30.25 693.641 31.5C693.016 32.7292 692.495 33.9896 692.079 35.2812C691.683 36.5521 691.381 37.8333 691.172 39.125C690.985 40.4167 690.891 41.6667 690.891 42.875ZM737.921 66.4375C739.005 66.1458 739.89 65.875 740.578 65.625C741.265 65.375 741.817 65.0312 742.234 64.5938C742.65 64.1562 742.963 63.5729 743.171 62.8438C743.38 62.1146 743.557 61.125 743.703 59.875L743.921 57.9688V27.9062C743.817 27.2188 743.65 26.6667 743.421 26.25C743.192 25.8125 742.869 25.4479 742.453 25.1562C742.036 24.8646 741.515 24.625 740.89 24.4375C740.265 24.2292 739.515 24 738.64 23.75V21.1875H748.609L777.359 57.5312L777.14 41.9375L776.859 25.5625L771.484 23.8125V21.1875H786.546V23.8125C785.442 24.1042 784.536 24.375 783.828 24.625C783.14 24.875 782.598 25.2188 782.203 25.6562C781.807 26.0938 781.525 26.6771 781.359 27.4062C781.213 28.1354 781.14 29.125 781.14 30.375V69H777.515L777.484 68.5938L777.39 69L748.296 31.5L748.734 64.625L748.796 64.7188L754.828 66.4375V69H737.921V66.4375ZM811.325 66.4375C812.388 66.1458 813.335 65.8854 814.169 65.6562C815.023 65.4271 815.752 65.1042 816.356 64.6875L832.325 24.5L829.606 23.5L829.575 21.9375C830.471 21.7292 831.221 21.5521 831.825 21.4062C832.45 21.2604 833.054 21.1146 833.638 20.9688C834.221 20.8021 834.856 20.625 835.544 20.4375C836.231 20.25 837.106 20 838.169 19.6875C838.44 20.4167 838.69 21.0625 838.919 21.625C839.169 22.1875 839.44 22.8021 839.731 23.4688C840.023 24.1146 840.367 24.8854 840.763 25.7812C841.158 26.6562 841.648 27.7708 842.231 29.125C842.815 30.4792 843.513 32.1354 844.325 34.0938C845.158 36.0521 846.158 38.4479 847.325 41.2812C848.492 44.1146 849.846 47.4479 851.388 51.2812C852.95 55.0938 854.752 59.5312 856.794 64.5938L856.45 64.7188L861.638 66.4375V69H843.013V66.4375C843.742 66.25 844.408 66.0729 845.013 65.9062C845.617 65.7396 846.148 65.5521 846.606 65.3438C847.085 65.1354 847.502 64.8958 847.856 64.625C848.21 64.3333 848.502 63.9792 848.731 63.5625C848.377 62.625 847.877 61.3229 847.231 59.6562C846.585 57.9688 845.731 55.7708 844.669 53.0625H825.919L821.606 64.9688L827.95 66.4375V69H811.325V66.4375ZM843.2 49.2812L834.919 28.4688C834.669 28.9479 834.408 29.5938 834.138 30.4062L827.294 49.2812H843.2ZM865.105 66.4375C866.188 66.1458 867.084 65.875 867.792 65.625C868.501 65.375 869.053 65.0312 869.449 64.5938C869.845 64.1562 870.115 63.5729 870.261 62.8438C870.428 62.1146 870.511 61.125 870.511 59.875V25.5L865.105 23.75V21.1875H873.792C875.042 21.1875 876.209 21.1667 877.292 21.125C878.397 21.0833 879.47 21.0417 880.511 21C881.574 20.9583 882.647 20.9167 883.73 20.875C884.834 20.8333 886.011 20.8125 887.261 20.8125C891.24 20.8125 894.74 21.3646 897.761 22.4688C900.782 23.5521 903.313 25.0521 905.355 26.9688C907.397 28.8646 908.928 31.1146 909.949 33.7188C910.99 36.3021 911.511 39.0938 911.511 42.0938C911.511 44.5521 911.261 46.9479 910.761 49.2812C910.282 51.5938 909.553 53.7708 908.574 55.8125C907.615 57.8333 906.417 59.6979 904.98 61.4062C903.563 63.0938 901.917 64.5417 900.042 65.75C898.167 66.9583 896.074 67.9062 893.761 68.5938C891.449 69.2604 888.938 69.5938 886.23 69.5938C885.251 69.5938 883.99 69.5312 882.449 69.4062C880.928 69.3021 879.365 69.1667 877.761 69H865.105V66.4375ZM877.261 63.4688C877.595 63.6354 878.053 63.8229 878.636 64.0312C879.22 64.2188 879.907 64.4062 880.699 64.5938C881.49 64.7812 882.365 64.9375 883.324 65.0625C884.282 65.1875 885.303 65.25 886.386 65.25C887.22 65.25 888.126 65.1979 889.105 65.0938C890.105 64.9896 891.105 64.8438 892.105 64.6562C893.105 64.4688 894.053 64.2396 894.949 63.9688C895.865 63.6979 896.657 63.3854 897.324 63.0312C898.053 62.4062 898.834 61.6042 899.667 60.625C900.522 59.6458 901.303 58.4479 902.011 57.0312C902.74 55.6146 903.345 53.9479 903.824 52.0312C904.303 50.0938 904.542 47.8646 904.542 45.3438C904.542 41.8854 904.084 38.8542 903.167 36.25C902.272 33.6458 900.959 31.4792 899.23 29.75C897.501 28.0208 895.365 26.7188 892.824 25.8438C890.303 24.9688 887.417 24.5312 884.167 24.5312C883.855 24.5312 883.261 24.5521 882.386 24.5938C881.511 24.6146 880.511 24.6771 879.386 24.7812C879.011 24.9271 878.688 25.1146 878.417 25.3438C878.167 25.5521 877.949 25.8333 877.761 26.1875C877.595 26.5208 877.47 26.9479 877.386 27.4688C877.303 27.9896 877.261 28.625 877.261 29.375V63.4688ZM922.26 30.3438L922.198 30.3125L920.198 25.25L915.104 23.75V21.1875H933.666V23.75C932.854 23.9792 932.156 24.1875 931.573 24.375C931.01 24.5417 930.52 24.75 930.104 25C929.708 25.25 929.375 25.5521 929.104 25.9062C928.833 26.2396 928.614 26.6771 928.448 27.2188L941.479 62.1562L953.916 25.1562L948.135 23.75V21.1875H965.291V23.75C964.208 24.0417 963.187 24.2812 962.229 24.4688C961.291 24.6562 960.437 24.9271 959.666 25.2812L944.041 68.0625L938.01 69.75L922.26 30.3438ZM968.915 66.4375C969.998 66.1458 970.852 65.875 971.477 65.625C972.102 65.375 972.571 65.0312 972.884 64.5938C973.196 64.1562 973.384 63.5729 973.446 62.8438C973.53 62.1146 973.571 61.125 973.571 59.875V25.5625L969.071 23.8125V21.25H985.227V23.8125C984.123 24.1042 983.248 24.375 982.602 24.625C981.957 24.875 981.467 25.2188 981.134 25.6562C980.8 26.0938 980.582 26.6771 980.477 27.4062C980.373 28.1354 980.321 29.125 980.321 30.375V64.7188L985.227 66.4375V69H968.915V66.4375ZM995.914 53.4062L999.476 53.4688L1000.79 60.6562C1000.91 61.1146 1001.04 61.4896 1001.16 61.7812C1001.29 62.0521 1001.41 62.2708 1001.54 62.4375C1001.68 62.6042 1001.82 62.7396 1001.95 62.8438C1002.07 62.9271 1002.18 63 1002.29 63.0625C1002.75 63.2917 1003.38 63.5521 1004.2 63.8438C1005.01 64.1146 1005.91 64.375 1006.91 64.625C1007.91 64.875 1008.96 65.0833 1010.04 65.25C1011.12 65.4167 1012.18 65.5 1013.23 65.5C1014.12 65.5 1014.93 65.3958 1015.66 65.1875C1016.39 64.9792 1017.05 64.7188 1017.63 64.4062C1018.22 64.0938 1018.73 63.75 1019.16 63.375C1019.62 62.9792 1020.03 62.6042 1020.38 62.25C1020.49 62.0625 1020.6 61.8229 1020.73 61.5312C1020.85 61.2188 1020.97 60.8854 1021.07 60.5312C1021.2 60.1562 1021.3 59.7604 1021.38 59.3438C1021.47 58.9271 1021.51 58.5208 1021.51 58.125C1021.51 56.5 1021.13 55.1458 1020.38 54.0625C1019.63 52.9583 1018.63 52.0208 1017.38 51.25C1016.15 50.4792 1014.75 49.8125 1013.16 49.25C1011.6 48.6667 1010 48.0833 1008.35 47.5C1006.71 46.9167 1005.09 46.2708 1003.51 45.5625C1001.95 44.8333 1000.54 43.9375 999.289 42.875C998.06 41.8125 997.07 40.5312 996.32 39.0312C995.57 37.5104 995.195 35.6458 995.195 33.4375C995.195 31.8958 995.445 30.5104 995.945 29.2812C996.445 28.0521 997.133 26.9583 998.008 26C998.883 25.0417 999.903 24.2188 1001.07 23.5312C1002.26 22.8438 1003.53 22.2812 1004.88 21.8438C1006.26 21.4062 1007.68 21.0833 1009.16 20.875C1010.64 20.6667 1012.12 20.5625 1013.6 20.5625C1014.81 20.5625 1015.88 20.6146 1016.82 20.7188C1017.76 20.8021 1018.66 20.9271 1019.54 21.0938C1020.41 21.2396 1021.32 21.4062 1022.26 21.5938C1023.2 21.7812 1024.26 21.9583 1025.45 22.125L1024.54 34.5H1021.2L1019.95 29.2812C1019.84 28.8021 1019.72 28.4062 1019.57 28.0938C1019.45 27.7604 1019.29 27.4792 1019.1 27.25C1018.91 27 1018.71 26.8021 1018.48 26.6562C1018.25 26.4896 1017.99 26.3333 1017.7 26.1875C1016.82 25.8333 1015.77 25.5208 1014.54 25.25C1013.33 24.9792 1011.98 24.8438 1010.48 24.8438C1009.23 24.8438 1008.08 24.9271 1007.04 25.0938C1006.02 25.2396 1005.14 25.5208 1004.41 25.9375C1004.18 26.2292 1003.9 26.5208 1003.57 26.8125C1003.26 27.1042 1002.96 27.4583 1002.66 27.875C1002.39 28.2917 1002.15 28.8021 1001.95 29.4062C1001.76 29.9896 1001.66 30.7188 1001.66 31.5938C1001.66 33.3021 1002.04 34.7292 1002.79 35.875C1003.54 37 1004.53 37.9583 1005.76 38.75C1006.99 39.5208 1008.38 40.1771 1009.95 40.7188C1011.51 41.2604 1013.1 41.8021 1014.73 42.3438C1016.37 42.8854 1017.98 43.4896 1019.54 44.1562C1021.1 44.8021 1022.5 45.6146 1023.73 46.5938C1024.96 47.5729 1025.95 48.7812 1026.7 50.2188C1027.45 51.6562 1027.82 53.4271 1027.82 55.5312C1027.82 58.1979 1027.29 60.4479 1026.23 62.2812C1025.16 64.0938 1023.73 65.5521 1021.91 66.6562C1020.1 67.7604 1018 68.5521 1015.6 69.0312C1013.23 69.5104 1010.72 69.75 1008.07 69.75C1007.01 69.75 1005.88 69.6458 1004.7 69.4375C1003.53 69.2292 1002.35 68.9479 1001.16 68.5938C999.997 68.2396 998.851 67.8333 997.726 67.375C996.601 66.8958 995.539 66.3958 994.539 65.875L995.914 53.4062ZM1035.66 46.125C1035.66 44.0208 1035.89 41.9271 1036.35 39.8438C1036.81 37.7604 1037.49 35.7708 1038.38 33.875C1039.3 31.9792 1040.42 30.2188 1041.76 28.5938C1043.11 26.9688 1044.67 25.5625 1046.44 24.375C1048.24 23.1875 1050.24 22.2604 1052.44 21.5938C1054.67 20.9062 1057.1 20.5625 1059.72 20.5625C1062.31 20.5625 1064.67 20.8646 1066.82 21.4688C1068.99 22.0729 1070.91 22.9167 1072.6 24C1074.31 25.0833 1075.8 26.3646 1077.07 27.8438C1078.34 29.3229 1079.39 30.9375 1080.22 32.6875C1081.08 34.4375 1081.71 36.2812 1082.13 38.2188C1082.55 40.1562 1082.76 42.125 1082.76 44.125C1082.76 46.2292 1082.53 48.3229 1082.07 50.4062C1081.61 52.4896 1080.92 54.4792 1080.01 56.375C1079.11 58.25 1077.99 60 1076.63 61.625C1075.28 63.25 1073.7 64.6562 1071.91 65.8438C1070.14 67.0104 1068.14 67.9375 1065.91 68.625C1063.7 69.2917 1061.29 69.625 1058.66 69.625C1056.08 69.625 1053.71 69.3229 1051.57 68.7188C1049.42 68.1146 1047.5 67.2812 1045.79 66.2188C1044.08 65.1354 1042.59 63.8542 1041.32 62.375C1040.05 60.8958 1039 59.2917 1038.16 57.5625C1037.33 55.8125 1036.7 53.9688 1036.29 52.0312C1035.87 50.0938 1035.66 48.125 1035.66 46.125ZM1042.63 42.875C1042.63 44.7083 1042.79 46.5312 1043.1 48.3438C1043.43 50.1562 1043.92 51.8854 1044.57 53.5312C1045.24 55.1771 1046.07 56.7083 1047.07 58.125C1048.09 59.5417 1049.29 60.7708 1050.66 61.8125C1052.04 62.8333 1053.61 63.6354 1055.38 64.2188C1057.15 64.8021 1059.12 65.0938 1061.29 65.0938C1063.1 65.0938 1064.81 64.8542 1066.41 64.375C1068.04 63.8958 1069.51 63.2708 1070.82 62.5C1071.65 61.3542 1072.38 60.1562 1073.01 58.9062C1073.63 57.6354 1074.14 56.3542 1074.54 55.0625C1074.95 53.75 1075.27 52.4479 1075.47 51.1562C1075.68 49.8646 1075.79 48.6042 1075.79 47.375C1075.79 45.5417 1075.62 43.7188 1075.29 41.9062C1074.97 40.0938 1074.49 38.3646 1073.82 36.7188C1073.17 35.0521 1072.34 33.5208 1071.32 32.125C1070.32 30.7083 1069.12 29.4792 1067.72 28.4375C1066.35 27.3958 1064.78 26.5833 1063.01 26C1061.24 25.4167 1059.27 25.125 1057.1 25.125C1055.29 25.125 1053.57 25.3854 1051.94 25.9062C1050.34 26.4062 1048.88 27.0729 1047.57 27.9062C1046.74 29.0521 1046.01 30.25 1045.38 31.5C1044.76 32.7292 1044.24 33.9896 1043.82 35.2812C1043.42 36.5521 1043.12 37.8333 1042.91 39.125C1042.72 40.4167 1042.63 41.6667 1042.63 42.875ZM1090.57 66.5C1091.61 66.2292 1092.46 65.9792 1093.13 65.75C1093.8 65.5 1094.32 65.1667 1094.69 64.75C1095.09 64.3333 1095.36 63.7812 1095.51 63.0938C1095.65 62.3854 1095.72 61.4375 1095.72 60.25V25.375L1090.57 23.7188V21.1875H1099.19C1099.9 21.1875 1100.55 21.1771 1101.13 21.1562C1101.71 21.1146 1102.29 21.0729 1102.85 21.0312C1103.41 20.9896 1103.98 20.9375 1104.57 20.875C1105.17 20.8125 1105.86 20.7604 1106.63 20.7188C1107.4 20.6771 1108.28 20.6458 1109.26 20.625C1110.26 20.5833 1111.43 20.5625 1112.79 20.5625C1114.72 20.5625 1116.51 20.8125 1118.13 21.3125C1119.78 21.7917 1121.18 22.5208 1122.35 23.5C1123.54 24.4792 1124.46 25.7188 1125.13 27.2188C1125.8 28.6979 1126.13 30.4375 1126.13 32.4375C1126.13 34.0417 1125.85 35.6458 1125.29 37.25C1124.72 38.8542 1123.94 40.3333 1122.94 41.6875C1121.96 43.0417 1120.81 44.2083 1119.47 45.1875C1118.14 46.1458 1116.69 46.7917 1115.13 47.125C1115.38 47.7083 1115.69 48.3958 1116.07 49.1875C1116.46 49.9792 1116.91 50.8229 1117.41 51.7188C1117.91 52.6146 1118.46 53.5312 1119.07 54.4688C1119.69 55.3854 1120.36 56.2812 1121.07 57.1562C1122.07 58.4062 1123.1 59.6042 1124.16 60.75C1125.22 61.875 1126.28 62.8958 1127.32 63.8125C1128.36 64.7292 1129.39 65.5208 1130.41 66.1875C1131.45 66.8542 1132.44 67.3333 1133.38 67.625L1133.35 69.2188C1132.62 69.2188 1131.81 69.2188 1130.91 69.2188C1130.02 69.2188 1129.2 69.2083 1128.47 69.1875C1127.74 69.1875 1127.02 69.1562 1126.29 69.0938C1125.56 69.0521 1124.85 68.9583 1124.16 68.8125C1123.04 68.6042 1122.03 68.2083 1121.13 67.625C1120.26 67.0417 1119.44 66.3333 1118.69 65.5C1117.96 64.6667 1117.27 63.75 1116.6 62.75C1115.95 61.7292 1115.28 60.6771 1114.57 59.5938C1114.01 58.6979 1113.47 57.7917 1112.97 56.875C1112.49 55.9375 1112.03 54.9896 1111.57 54.0312C1111.11 53.0521 1110.65 52.0625 1110.19 51.0625C1109.73 50.0417 1109.26 49.0104 1108.76 47.9688C1108.01 47.9479 1107.13 47.8958 1106.13 47.8125C1105.13 47.7292 1103.91 47.5938 1102.47 47.4062V64.875L1108.35 66.5V68.9688H1090.57V66.5ZM1102.47 44.125C1103.58 44.3333 1104.73 44.4792 1105.94 44.5625C1107.15 44.625 1108.34 44.6146 1109.51 44.5312C1110.69 44.4271 1111.82 44.25 1112.88 44C1113.96 43.75 1114.92 43.3958 1115.76 42.9375C1116.23 42.4792 1116.69 41.9688 1117.13 41.4062C1117.57 40.8438 1117.95 40.1979 1118.29 39.4688C1118.62 38.7396 1118.88 37.9167 1119.07 37C1119.28 36.0625 1119.38 35 1119.38 33.8125C1119.38 32.2292 1119.1 30.8125 1118.54 29.5625C1117.99 28.3125 1117.23 27.2604 1116.26 26.4062C1115.28 25.5312 1114.11 24.8646 1112.76 24.4062C1111.4 23.9479 1109.92 23.7188 1108.32 23.7188C1106.94 23.7188 1105.86 23.8229 1105.07 24.0312C1104.3 24.2188 1103.71 24.5729 1103.32 25.0938C1102.94 25.6146 1102.7 26.3333 1102.6 27.25C1102.52 28.1458 1102.47 29.2917 1102.47 30.6875V44.125ZM1146.82 66.4062C1148.15 66.1979 1149.28 65.9792 1150.22 65.75C1151.18 65.5 1151.96 65.1458 1152.57 64.6875C1153.19 64.2292 1153.65 63.625 1153.94 62.875C1154.23 62.1042 1154.38 61.0938 1154.38 59.8438V50.3438L1139.22 26.1875L1138.57 25.4688L1134.47 23.75V21.1875H1152.13V23.75C1150.13 23.9792 1148.73 24.3333 1147.94 24.8125C1147.15 25.2917 1146.88 26.0729 1147.13 27.1562L1158.53 46.8125L1170.35 25.2188L1165.19 23.75V21.1875H1179.82V23.75C1179 23.9792 1178.25 24.1875 1177.57 24.375C1176.9 24.5625 1176.3 24.7708 1175.75 25L1161.13 50.3438V64.6875L1168.72 66.4062V68.9688H1146.82V66.4062ZM1207.63 66.4375C1208.71 66.1458 1209.58 65.875 1210.25 65.625C1210.92 65.375 1211.43 65.0312 1211.78 64.5938C1212.16 64.1562 1212.4 63.5729 1212.5 62.8438C1212.63 62.1146 1212.69 61.125 1212.69 59.875V25.5625L1207.31 23.8125V21.1875H1225.47V23.8125C1224.37 24.0833 1223.43 24.3438 1222.66 24.5938C1221.91 24.8438 1221.29 25.1875 1220.81 25.625C1220.33 26.0625 1219.98 26.6562 1219.75 27.4062C1219.54 28.1354 1219.44 29.125 1219.44 30.375V65.5L1237.59 64.5312L1240.5 54.4375H1244.03L1242.72 69.5625L1238.31 69H1207.63V66.4375ZM1258.88 66.4375C1260.04 66.2292 1261.06 66.0104 1261.94 65.7812C1262.83 65.5312 1263.57 65.1771 1264.16 64.7188C1264.74 64.2604 1265.18 63.6562 1265.47 62.9062C1265.76 62.1354 1265.91 61.125 1265.91 59.875V25.3125C1264.86 25.3542 1263.45 25.4062 1261.66 25.4688C1259.89 25.5312 1257.59 25.625 1254.78 25.75L1251.91 33.5H1248.97L1249.59 20.5938L1253.72 21.1875H1284.72L1288.84 20.5938L1288.03 33.5H1285.09L1283.66 25.75C1281.14 25.6458 1279.03 25.5625 1277.34 25.5C1275.66 25.4375 1274.27 25.3854 1273.19 25.3438C1272.98 25.6354 1272.83 26.0417 1272.75 26.5625C1272.69 27.0833 1272.66 27.8021 1272.66 28.7188V64.7188L1279.94 66.4375V69H1258.88V66.4375ZM1294.91 66.4375C1295.99 66.1458 1296.88 65.875 1297.59 65.625C1298.3 65.375 1298.85 65.0312 1299.25 64.5938C1299.64 64.1562 1299.92 63.5729 1300.06 62.8438C1300.23 62.1146 1300.31 61.125 1300.31 59.875V25.5L1294.91 23.75V21.1875H1303.59C1304.84 21.1875 1306.01 21.1667 1307.09 21.125C1308.2 21.0833 1309.27 21.0417 1310.31 21C1311.37 20.9583 1312.45 20.9167 1313.53 20.875C1314.63 20.8333 1315.81 20.8125 1317.06 20.8125C1321.04 20.8125 1324.54 21.3646 1327.56 22.4688C1330.58 23.5521 1333.11 25.0521 1335.16 26.9688C1337.2 28.8646 1338.73 31.1146 1339.75 33.7188C1340.79 36.3021 1341.31 39.0938 1341.31 42.0938C1341.31 44.5521 1341.06 46.9479 1340.56 49.2812C1340.08 51.5938 1339.35 53.7708 1338.37 55.8125C1337.42 57.8333 1336.22 59.6979 1334.78 61.4062C1333.36 63.0938 1331.72 64.5417 1329.84 65.75C1327.97 66.9583 1325.87 67.9062 1323.56 68.5938C1321.25 69.2604 1318.74 69.5938 1316.03 69.5938C1315.05 69.5938 1313.79 69.5312 1312.25 69.4062C1310.73 69.3021 1309.17 69.1667 1307.56 69H1294.91V66.4375ZM1307.06 63.4688C1307.39 63.6354 1307.85 63.8229 1308.44 64.0312C1309.02 64.2188 1309.71 64.4062 1310.5 64.5938C1311.29 64.7812 1312.17 64.9375 1313.12 65.0625C1314.08 65.1875 1315.1 65.25 1316.19 65.25C1317.02 65.25 1317.93 65.1979 1318.91 65.0938C1319.91 64.9896 1320.91 64.8438 1321.91 64.6562C1322.91 64.4688 1323.85 64.2396 1324.75 63.9688C1325.67 63.6979 1326.46 63.3854 1327.12 63.0312C1327.85 62.4062 1328.63 61.6042 1329.47 60.625C1330.32 59.6458 1331.1 58.4479 1331.81 57.0312C1332.54 55.6146 1333.14 53.9479 1333.62 52.0312C1334.1 50.0938 1334.34 47.8646 1334.34 45.3438C1334.34 41.8854 1333.88 38.8542 1332.97 36.25C1332.07 33.6458 1330.76 31.4792 1329.03 29.75C1327.3 28.0208 1325.17 26.7188 1322.62 25.8438C1320.1 24.9688 1317.22 24.5312 1313.97 24.5312C1313.66 24.5312 1313.06 24.5521 1312.19 24.5938C1311.31 24.6146 1310.31 24.6771 1309.19 24.7812C1308.81 24.9271 1308.49 25.1146 1308.22 25.3438C1307.97 25.5521 1307.75 25.8333 1307.56 26.1875C1307.39 26.5208 1307.27 26.9479 1307.19 27.4688C1307.1 27.9896 1307.06 28.625 1307.06 29.375V63.4688Z" fill="#9A2145"/>
<path d="M452.44 100.92V99.8H460.2V100.92L458 101.2C457.573 101.253 457.32 101.373 457.24 101.56C457.16 101.72 457.12 102.253 457.12 103.16V117.76C457.12 120.96 456.44 123.373 455.08 125C453.747 126.6 451.693 127.4 448.92 127.4C445.693 127.4 443.093 126.52 441.12 124.76C439.147 123 438.16 120.467 438.16 117.16V103.16C438.16 102.253 438.12 101.72 438.04 101.56C437.96 101.373 437.707 101.253 437.28 101.2L435.08 100.92V99.8H446.04V100.92L443.84 101.2C443.413 101.253 443.16 101.373 443.08 101.56C443 101.72 442.96 102.253 442.96 103.16V117.44C442.96 120.427 443.507 122.587 444.6 123.92C445.693 125.253 447.253 125.92 449.28 125.92C451.253 125.92 452.787 125.293 453.88 124.04C454.973 122.76 455.52 120.693 455.52 117.84V103.16C455.52 102.253 455.48 101.72 455.4 101.56C455.32 101.373 455.067 101.253 454.64 101.2L452.44 100.92ZM463.864 100.92V99.8H474.824V100.92L472.624 101.2C472.197 101.253 471.944 101.373 471.864 101.56C471.784 101.72 471.744 102.253 471.744 103.16V113.92L481.224 103.16C481.997 102.28 482.397 101.747 482.424 101.56C482.477 101.373 482.29 101.253 481.864 101.2L479.664 100.92V99.8H487.784V100.92L485.584 101.2C485.317 101.227 485.104 101.28 484.944 101.36C484.784 101.44 484.584 101.613 484.344 101.88C484.104 102.147 483.717 102.573 483.184 103.16L477.584 109.48L484.504 123.64C484.797 124.2 485.024 124.613 485.184 124.88C485.344 125.147 485.53 125.32 485.744 125.4C485.957 125.48 486.25 125.547 486.624 125.6L488.424 125.88V127H480.824L474.344 113.16L471.744 116.12V123.64C471.744 124.547 471.784 125.093 471.864 125.28C471.944 125.44 472.197 125.547 472.624 125.6L474.824 125.88V127H463.864V125.88L466.064 125.6C466.49 125.547 466.744 125.44 466.824 125.28C466.904 125.093 466.944 124.547 466.944 123.64V103.16C466.944 102.253 466.904 101.72 466.824 101.56C466.744 101.373 466.49 101.253 466.064 101.2L463.864 100.92ZM500.659 100.92V99.8H511.619V100.92L509.419 101.2C508.992 101.253 508.739 101.373 508.659 101.56C508.579 101.72 508.539 102.253 508.539 103.16V123.64C508.539 124.547 508.579 125.093 508.659 125.28C508.739 125.44 508.992 125.547 509.419 125.6L511.619 125.88V127H500.659V125.88L502.859 125.6C503.286 125.547 503.539 125.44 503.619 125.28C503.699 125.093 503.739 124.547 503.739 123.64V103.16C503.739 102.253 503.699 101.72 503.619 101.56C503.539 101.373 503.286 101.253 502.859 101.2L500.659 100.92ZM538.233 125.88V127H527.473V125.88L529.673 125.6C530.1 125.547 530.353 125.44 530.433 125.28C530.513 125.093 530.553 124.547 530.553 123.64V113.56C530.553 111.72 530.3 110.387 529.793 109.56C529.286 108.707 528.526 108.28 527.513 108.28C527.086 108.28 526.58 108.4 525.993 108.64C525.406 108.853 524.82 109.253 524.233 109.84C523.673 110.427 523.18 111.293 522.753 112.44V123.64C522.753 124.547 522.793 125.093 522.873 125.28C522.953 125.44 523.206 125.547 523.633 125.6L525.833 125.88V127H515.073V125.88L517.273 125.6C517.7 125.547 517.953 125.44 518.033 125.28C518.113 125.093 518.153 124.547 518.153 123.64V110.08C518.153 109.173 518.113 108.64 518.033 108.48C517.953 108.293 517.7 108.173 517.273 108.12L515.073 107.84V106.72H522.513V110.24C523.26 108.88 524.22 107.893 525.393 107.28C526.566 106.64 527.753 106.32 528.953 106.32C530.393 106.32 531.606 106.693 532.593 107.44C533.606 108.16 534.326 109.2 534.753 110.56C535.473 109.067 536.446 107.987 537.673 107.32C538.9 106.653 540.126 106.32 541.353 106.32C543.246 106.32 544.753 106.947 545.873 108.2C546.993 109.453 547.553 111.227 547.553 113.52V123.64C547.553 124.547 547.593 125.093 547.673 125.28C547.753 125.44 548.006 125.547 548.433 125.6L550.633 125.88V127H539.873V125.88L542.073 125.6C542.5 125.547 542.753 125.44 542.833 125.28C542.913 125.093 542.953 124.547 542.953 123.64V113.56C542.953 111.72 542.7 110.387 542.193 109.56C541.686 108.707 540.926 108.28 539.913 108.28C539.486 108.28 538.98 108.4 538.393 108.64C537.806 108.853 537.22 109.267 536.633 109.88C536.046 110.493 535.54 111.387 535.113 112.56C535.14 112.693 535.153 112.853 535.153 113.04C535.153 113.2 535.153 113.36 535.153 113.52V123.64C535.153 124.547 535.193 125.093 535.273 125.28C535.353 125.44 535.606 125.547 536.033 125.6L538.233 125.88ZM575.947 125.88V127H565.187V125.88L567.387 125.6C567.814 125.547 568.067 125.44 568.147 125.28C568.227 125.093 568.267 124.547 568.267 123.64V113.56C568.267 111.72 568.014 110.387 567.507 109.56C567.001 108.707 566.241 108.28 565.227 108.28C564.801 108.28 564.294 108.4 563.707 108.64C563.121 108.853 562.534 109.253 561.947 109.84C561.387 110.427 560.894 111.293 560.467 112.44V123.64C560.467 124.547 560.507 125.093 560.587 125.28C560.667 125.44 560.921 125.547 561.347 125.6L563.547 125.88V127H552.787V125.88L554.987 125.6C555.414 125.547 555.667 125.44 555.747 125.28C555.827 125.093 555.867 124.547 555.867 123.64V110.08C555.867 109.173 555.827 108.64 555.747 108.48C555.667 108.293 555.414 108.173 554.987 108.12L552.787 107.84V106.72H560.227V110.24C560.974 108.88 561.934 107.893 563.107 107.28C564.281 106.64 565.467 106.32 566.667 106.32C568.107 106.32 569.321 106.693 570.307 107.44C571.321 108.16 572.041 109.2 572.467 110.56C573.187 109.067 574.161 107.987 575.387 107.32C576.614 106.653 577.841 106.32 579.067 106.32C580.961 106.32 582.467 106.947 583.587 108.2C584.707 109.453 585.267 111.227 585.267 113.52V123.64C585.267 124.547 585.307 125.093 585.387 125.28C585.467 125.44 585.721 125.547 586.147 125.6L588.347 125.88V127H577.587V125.88L579.787 125.6C580.214 125.547 580.467 125.44 580.547 125.28C580.627 125.093 580.667 124.547 580.667 123.64V113.56C580.667 111.72 580.414 110.387 579.907 109.56C579.401 108.707 578.641 108.28 577.627 108.28C577.201 108.28 576.694 108.4 576.107 108.64C575.521 108.853 574.934 109.267 574.347 109.88C573.761 110.493 573.254 111.387 572.827 112.56C572.854 112.693 572.867 112.853 572.867 113.04C572.867 113.2 572.867 113.36 572.867 113.52V123.64C572.867 124.547 572.907 125.093 572.987 125.28C573.067 125.44 573.321 125.547 573.747 125.6L575.947 125.88ZM595.861 103.28C595.035 103.28 594.368 103.027 593.861 102.52C593.355 101.987 593.101 101.307 593.101 100.48C593.101 99.6533 593.355 98.9867 593.861 98.48C594.368 97.9733 595.035 97.72 595.861 97.72C596.661 97.72 597.328 97.9733 597.861 98.48C598.395 98.9867 598.661 99.6533 598.661 100.48C598.661 101.307 598.395 101.987 597.861 102.52C597.328 103.027 596.661 103.28 595.861 103.28ZM590.501 107.84V106.72H598.181V123.64C598.181 124.547 598.221 125.093 598.301 125.28C598.381 125.44 598.635 125.547 599.061 125.6L601.261 125.88V127H590.501V125.88L592.701 125.6C593.128 125.547 593.381 125.44 593.461 125.28C593.541 125.093 593.581 124.547 593.581 123.64V110.08C593.581 109.173 593.541 108.64 593.461 108.48C593.381 108.293 593.128 108.173 592.701 108.12L590.501 107.84ZM623.126 129.08C623.126 131.267 622.299 132.947 620.646 134.12C619.019 135.32 616.779 135.92 613.926 135.92C610.779 135.92 608.433 135.4 606.886 134.36C605.339 133.347 604.499 132.08 604.366 130.56L608.646 129.88C608.539 131.293 608.873 132.413 609.646 133.24C610.446 134.093 611.873 134.52 613.926 134.52C615.846 134.52 617.393 134.16 618.566 133.44C619.766 132.72 620.366 131.68 620.366 130.32C620.366 129.36 620.006 128.627 619.286 128.12C618.593 127.64 617.433 127.4 615.806 127.4H611.246C609.833 127.4 608.713 127.2 607.886 126.8C607.086 126.4 606.526 125.907 606.206 125.32C605.886 124.707 605.726 124.08 605.726 123.44C605.726 122.667 605.939 121.907 606.366 121.16C606.793 120.387 607.526 119.627 608.566 118.88C607.419 118.373 606.486 117.627 605.766 116.64C605.046 115.653 604.686 114.427 604.686 112.96C604.686 111.467 605.033 110.24 605.726 109.28C606.419 108.293 607.353 107.56 608.526 107.08C609.699 106.573 611.006 106.32 612.446 106.32H613.126C614.673 106.32 616.006 106.573 617.126 107.08L622.886 104.24L623.366 108.16H618.806C619.446 108.72 619.939 109.4 620.286 110.2C620.659 110.973 620.846 111.893 620.846 112.96C620.846 114.4 620.499 115.613 619.806 116.6C619.113 117.587 618.179 118.333 617.006 118.84C615.859 119.347 614.566 119.6 613.126 119.6H612.446C611.646 119.6 610.859 119.52 610.086 119.36C609.419 119.813 608.953 120.253 608.686 120.68C608.446 121.08 608.326 121.467 608.326 121.84C608.326 122.267 608.513 122.587 608.886 122.8C609.286 123.013 609.926 123.12 610.806 123.12H616.006C618.299 123.12 620.059 123.64 621.286 124.68C622.513 125.693 623.126 127.16 623.126 129.08ZM613.126 118.2C613.979 118.2 614.713 117.827 615.326 117.08C615.939 116.333 616.246 114.96 616.246 112.96C616.246 110.96 615.939 109.587 615.326 108.84C614.713 108.093 613.979 107.72 613.126 107.72H612.446C611.593 107.72 610.846 108.093 610.206 108.84C609.593 109.587 609.286 110.96 609.286 112.96C609.286 114.96 609.593 116.333 610.206 117.08C610.846 117.827 611.593 118.2 612.446 118.2H613.126ZM625.695 107.84V106.72H633.135V110C634.762 107.547 636.695 106.32 638.935 106.32C639.762 106.32 640.562 106.587 641.335 107.12C642.108 107.627 642.748 108.587 643.255 110L639.695 111.92C639.322 110.827 638.882 110.093 638.375 109.72C637.895 109.32 637.375 109.12 636.815 109.12C636.228 109.12 635.655 109.307 635.095 109.68C634.535 110.053 633.962 110.747 633.375 111.76V123.64C633.375 124.547 633.415 125.093 633.495 125.28C633.575 125.44 633.828 125.547 634.255 125.6L637.255 125.88V127H625.695V125.88L627.895 125.6C628.322 125.547 628.575 125.44 628.655 125.28C628.735 125.093 628.775 124.547 628.775 123.64V110.08C628.775 109.173 628.735 108.64 628.655 108.48C628.575 108.293 628.322 108.173 627.895 108.12L625.695 107.84ZM665.176 126C664.75 126.4 664.23 126.733 663.616 127C663.03 127.267 662.31 127.4 661.456 127.4C660.363 127.4 659.443 127.16 658.696 126.68C657.976 126.2 657.496 125.52 657.256 124.64C656.376 125.6 655.403 126.307 654.336 126.76C653.296 127.187 652.23 127.4 651.136 127.4C649.296 127.4 647.923 126.893 647.016 125.88C646.11 124.84 645.656 123.547 645.656 122C645.656 120.427 646.23 119.16 647.376 118.2C648.523 117.213 650.55 116.72 653.456 116.72H657.096V113.48C657.096 111.267 656.803 109.76 656.216 108.96C655.656 108.133 654.87 107.72 653.856 107.72C653.19 107.72 652.576 107.893 652.016 108.24C651.456 108.56 651.056 109.173 650.816 110.08C650.603 110.96 650.643 112.24 650.936 113.92L646.536 113.28C646.323 112.053 646.456 110.92 646.936 109.88C647.443 108.813 648.283 107.96 649.456 107.32C650.63 106.653 652.123 106.32 653.936 106.32C655.99 106.32 657.576 106.653 658.696 107.32C659.816 107.987 660.59 108.867 661.016 109.96C661.47 111.053 661.696 112.227 661.696 113.48V122.72C661.696 124.08 661.816 124.933 662.056 125.28C662.296 125.627 662.563 125.8 662.856 125.8C663.336 125.8 663.87 125.52 664.456 124.96L665.176 126ZM652.896 125.28C653.59 125.28 654.27 125.107 654.936 124.76C655.63 124.387 656.35 123.707 657.096 122.72V118.12H654.096C652.79 118.12 651.843 118.427 651.256 119.04C650.67 119.653 650.376 120.613 650.376 121.92C650.376 122.987 650.59 123.813 651.016 124.4C651.443 124.987 652.07 125.28 652.896 125.28ZM681.34 122.84C680.993 124.467 680.326 125.64 679.34 126.36C678.38 127.053 677.206 127.4 675.82 127.4C674.406 127.4 673.246 127.093 672.34 126.48C671.433 125.84 670.766 125 670.34 123.96C669.913 122.92 669.7 121.813 669.7 120.64V110.08C669.7 109.173 669.66 108.64 669.58 108.48C669.5 108.293 669.246 108.173 668.82 108.12L666.62 107.84V106.72H669.7V102.08L674.3 101.16V106.72H680.7V108.12H674.3V121.44C674.3 123.147 674.513 124.333 674.94 125C675.366 125.64 675.913 125.96 676.58 125.96C677.273 125.96 677.806 125.693 678.18 125.16C678.58 124.627 678.833 123.653 678.94 122.24L681.34 122.84ZM689.041 103.28C688.214 103.28 687.548 103.027 687.041 102.52C686.534 101.987 686.281 101.307 686.281 100.48C686.281 99.6533 686.534 98.9867 687.041 98.48C687.548 97.9733 688.214 97.72 689.041 97.72C689.841 97.72 690.508 97.9733 691.041 98.48C691.574 98.9867 691.841 99.6533 691.841 100.48C691.841 101.307 691.574 101.987 691.041 102.52C690.508 103.027 689.841 103.28 689.041 103.28ZM683.681 107.84V106.72H691.361V123.64C691.361 124.547 691.401 125.093 691.481 125.28C691.561 125.44 691.814 125.547 692.241 125.6L694.441 125.88V127H683.681V125.88L685.881 125.6C686.308 125.547 686.561 125.44 686.641 125.28C686.721 125.093 686.761 124.547 686.761 123.64V110.08C686.761 109.173 686.721 108.64 686.641 108.48C686.561 108.293 686.308 108.173 685.881 108.12L683.681 107.84ZM716.266 116.44V117.24C716.266 120.307 715.466 122.773 713.866 124.64C712.292 126.48 710.039 127.4 707.106 127.4C704.172 127.4 701.906 126.48 700.306 124.64C698.732 122.773 697.946 120.307 697.946 117.24V116.44C697.946 113.373 698.732 110.92 700.306 109.08C701.906 107.24 704.172 106.32 707.106 106.32C710.039 106.32 712.292 107.24 713.866 109.08C715.466 110.92 716.266 113.373 716.266 116.44ZM711.346 115.64C711.346 112.787 710.986 110.76 710.266 109.56C709.546 108.333 708.492 107.72 707.106 107.72C705.746 107.72 704.692 108.333 703.946 109.56C703.226 110.76 702.866 112.787 702.866 115.64V118.04C702.866 120.867 703.226 122.907 703.946 124.16C704.692 125.387 705.746 126 707.106 126C708.492 126 709.546 125.387 710.266 124.16C710.986 122.907 711.346 120.867 711.346 118.04V115.64ZM743.607 125.88V127H732.847V125.88L735.047 125.6C735.473 125.547 735.727 125.44 735.807 125.28C735.887 125.093 735.927 124.547 735.927 123.64V113.56C735.927 111.72 735.647 110.387 735.087 109.56C734.553 108.707 733.753 108.28 732.687 108.28C732.233 108.28 731.7 108.4 731.087 108.64C730.5 108.853 729.9 109.253 729.287 109.84C728.7 110.427 728.18 111.293 727.727 112.44V123.64C727.727 124.547 727.767 125.093 727.847 125.28C727.927 125.44 728.18 125.547 728.607 125.6L730.807 125.88V127H720.047V125.88L722.247 125.6C722.673 125.547 722.927 125.44 723.007 125.28C723.087 125.093 723.127 124.547 723.127 123.64V110.08C723.127 109.173 723.087 108.64 723.007 108.48C722.927 108.293 722.673 108.173 722.247 108.12L720.047 107.84V106.72H727.487V110.24C728.26 108.88 729.247 107.893 730.447 107.28C731.673 106.64 732.9 106.32 734.127 106.32C736.1 106.32 737.66 106.947 738.807 108.2C739.953 109.453 740.527 111.227 740.527 113.52V123.64C740.527 124.547 740.567 125.093 740.647 125.28C740.727 125.44 740.98 125.547 741.407 125.6L743.607 125.88ZM762.074 125.88V127H754.354V125.88L756.554 125.6C756.847 125.547 757.06 125.493 757.194 125.44C757.327 125.36 757.447 125.187 757.554 124.92C757.66 124.653 757.807 124.227 757.994 123.64L765.634 99.8H769.074L776.754 123.64C776.94 124.227 777.087 124.653 777.194 124.92C777.3 125.187 777.42 125.36 777.554 125.44C777.714 125.493 777.927 125.547 778.194 125.6L780.394 125.88V127H769.354V125.88L771.554 125.6C771.98 125.547 772.207 125.44 772.234 125.28C772.287 125.093 772.167 124.547 771.874 123.64L770.354 118.68H761.114L759.554 123.64C759.287 124.547 759.167 125.093 759.194 125.28C759.22 125.44 759.447 125.547 759.874 125.6L762.074 125.88ZM761.594 117.28H769.914L765.794 104L761.594 117.28ZM803.701 125.88V127H796.261V123.68C795.514 124.907 794.674 125.84 793.741 126.48C792.834 127.093 791.754 127.4 790.501 127.4C788.261 127.4 786.474 126.52 785.141 124.76C783.834 122.973 783.181 120.48 783.181 117.28V116.48C783.181 113.387 783.941 110.92 785.461 109.08C787.007 107.24 789.114 106.32 791.781 106.32C793.381 106.32 794.794 106.72 796.021 107.52V100.76C796.021 99.8533 795.981 99.32 795.901 99.16C795.821 98.9733 795.567 98.8533 795.141 98.8L792.941 98.52V97.4H800.621V123.64C800.621 124.547 800.661 125.093 800.741 125.28C800.821 125.44 801.074 125.547 801.501 125.6L803.701 125.88ZM788.101 118.48C788.101 120.96 788.407 122.773 789.021 123.92C789.634 125.067 790.474 125.64 791.541 125.64C792.207 125.64 792.901 125.373 793.621 124.84C794.367 124.28 795.167 123.16 796.021 121.48V109.4C795.007 108.387 793.767 107.88 792.301 107.88C790.834 107.88 789.767 108.547 789.101 109.88C788.434 111.187 788.101 112.987 788.101 115.28V118.48ZM822.878 110.08L817.198 127H813.558L807.878 110.08C807.691 109.467 807.531 109.04 807.398 108.8C807.291 108.533 807.158 108.36 806.998 108.28C806.864 108.2 806.651 108.147 806.358 108.12L804.158 107.84V106.72H814.958V107.84L812.758 108.12C812.358 108.173 812.144 108.28 812.118 108.44C812.091 108.6 812.224 109.147 812.518 110.08L816.918 123.36L821.358 110.08C821.651 109.147 821.784 108.6 821.758 108.44C821.758 108.28 821.544 108.173 821.118 108.12L818.918 107.84V106.72H826.558V107.84L824.358 108.12C824.091 108.147 823.878 108.2 823.718 108.28C823.584 108.36 823.464 108.533 823.358 108.8C823.251 109.04 823.091 109.467 822.878 110.08ZM833.43 103.28C832.603 103.28 831.937 103.027 831.43 102.52C830.923 101.987 830.67 101.307 830.67 100.48C830.67 99.6533 830.923 98.9867 831.43 98.48C831.937 97.9733 832.603 97.72 833.43 97.72C834.23 97.72 834.897 97.9733 835.43 98.48C835.963 98.9867 836.23 99.6533 836.23 100.48C836.23 101.307 835.963 101.987 835.43 102.52C834.897 103.027 834.23 103.28 833.43 103.28ZM828.07 107.84V106.72H835.75V123.64C835.75 124.547 835.79 125.093 835.87 125.28C835.95 125.44 836.203 125.547 836.63 125.6L838.83 125.88V127H828.07V125.88L830.27 125.6C830.697 125.547 830.95 125.44 831.03 125.28C831.11 125.093 831.15 124.547 831.15 123.64V110.08C831.15 109.173 831.11 108.64 831.03 108.48C830.95 108.293 830.697 108.173 830.27 108.12L828.07 107.84ZM850.295 119.44L847.535 118.8C845.748 118.373 844.415 117.613 843.535 116.52C842.681 115.4 842.255 114.08 842.255 112.56C842.255 111.44 842.495 110.413 842.975 109.48C843.481 108.52 844.268 107.76 845.335 107.2C846.401 106.613 847.788 106.32 849.495 106.32C851.335 106.32 852.828 106.613 853.975 107.2C855.121 107.787 855.935 108.56 856.415 109.52C856.895 110.48 857.041 111.507 856.855 112.6L852.455 113.4C852.828 111.587 852.721 110.187 852.135 109.2C851.575 108.213 850.628 107.72 849.295 107.72C848.361 107.72 847.588 108 846.975 108.56C846.361 109.093 846.055 109.867 846.055 110.88C846.055 111.813 846.321 112.64 846.855 113.36C847.388 114.053 848.175 114.52 849.215 114.76L851.975 115.4C853.948 115.853 855.375 116.573 856.255 117.56C857.135 118.52 857.575 119.72 857.575 121.16C857.575 122.947 856.908 124.44 855.575 125.64C854.268 126.813 852.308 127.4 849.695 127.4C848.788 127.4 847.788 127.267 846.695 127C845.628 126.707 844.641 126.187 843.735 125.44C842.855 124.693 842.215 123.627 841.815 122.24L844.415 121.2C844.601 122.96 845.201 124.2 846.215 124.92C847.255 125.64 848.415 126 849.695 126C850.895 126 851.868 125.733 852.615 125.2C853.388 124.64 853.775 123.84 853.775 122.8C853.775 122.08 853.521 121.427 853.015 120.84C852.535 120.227 851.628 119.76 850.295 119.44ZM880.673 116.44V117.24C880.673 120.307 879.873 122.773 878.273 124.64C876.7 126.48 874.447 127.4 871.513 127.4C868.58 127.4 866.313 126.48 864.713 124.64C863.14 122.773 862.353 120.307 862.353 117.24V116.44C862.353 113.373 863.14 110.92 864.713 109.08C866.313 107.24 868.58 106.32 871.513 106.32C874.447 106.32 876.7 107.24 878.273 109.08C879.873 110.92 880.673 113.373 880.673 116.44ZM875.753 115.64C875.753 112.787 875.393 110.76 874.673 109.56C873.953 108.333 872.9 107.72 871.513 107.72C870.153 107.72 869.1 108.333 868.353 109.56C867.633 110.76 867.273 112.787 867.273 115.64V118.04C867.273 120.867 867.633 122.907 868.353 124.16C869.1 125.387 870.153 126 871.513 126C872.9 126 873.953 125.387 874.673 124.16C875.393 122.907 875.753 120.867 875.753 118.04V115.64ZM884.454 107.84V106.72H891.894V110C893.521 107.547 895.454 106.32 897.694 106.32C898.521 106.32 899.321 106.587 900.094 107.12C900.868 107.627 901.508 108.587 902.014 110L898.454 111.92C898.081 110.827 897.641 110.093 897.134 109.72C896.654 109.32 896.134 109.12 895.574 109.12C894.988 109.12 894.414 109.307 893.854 109.68C893.294 110.053 892.721 110.747 892.134 111.76V123.64C892.134 124.547 892.174 125.093 892.254 125.28C892.334 125.44 892.588 125.547 893.014 125.6L896.014 125.88V127H884.454V125.88L886.654 125.6C887.081 125.547 887.334 125.44 887.414 125.28C887.494 125.093 887.534 124.547 887.534 123.64V110.08C887.534 109.173 887.494 108.64 887.414 108.48C887.334 108.293 887.081 108.173 886.654 108.12L884.454 107.84ZM914.931 129C914.318 130.68 913.638 132.027 912.891 133.04C912.171 134.053 911.278 134.787 910.211 135.24C909.144 135.693 907.811 135.92 906.211 135.92V131.52C907.838 131.52 909.144 131.4 910.131 131.16C911.144 130.947 911.918 130.587 912.451 130.08C913.011 129.6 913.424 128.973 913.691 128.2L914.091 127H912.011L906.331 110.08C906.144 109.467 905.984 109.04 905.851 108.8C905.744 108.533 905.611 108.36 905.451 108.28C905.318 108.2 905.104 108.147 904.811 108.12L902.611 107.84V106.72H913.411V107.84L911.211 108.12C910.891 108.147 910.691 108.253 910.611 108.44C910.558 108.6 910.678 109.147 910.971 110.08L915.331 123.28L919.851 109.92C920.144 109.067 920.264 108.573 920.211 108.44C920.184 108.28 919.971 108.173 919.571 108.12L917.371 107.84V106.72H925.011V107.84L922.811 108.12C922.411 108.173 922.144 108.28 922.011 108.44C921.878 108.6 921.664 109.093 921.371 109.92L914.931 129ZM935.988 98.52V97.4H943.668V123.64C943.668 124.547 943.708 125.093 943.788 125.28C943.868 125.44 944.122 125.547 944.548 125.6L946.748 125.88V127H935.988V125.88L938.188 125.6C938.615 125.547 938.868 125.44 938.948 125.28C939.028 125.093 939.068 124.547 939.068 123.64V100.76C939.068 99.8533 939.028 99.32 938.948 99.16C938.868 98.9733 938.615 98.8533 938.188 98.8L935.988 98.52ZM954.46 103.28C953.633 103.28 952.966 103.027 952.46 102.52C951.953 101.987 951.7 101.307 951.7 100.48C951.7 99.6533 951.953 98.9867 952.46 98.48C952.966 97.9733 953.633 97.72 954.46 97.72C955.26 97.72 955.926 97.9733 956.46 98.48C956.993 98.9867 957.26 99.6533 957.26 100.48C957.26 101.307 956.993 101.987 956.46 102.52C955.926 103.027 955.26 103.28 954.46 103.28ZM949.1 107.84V106.72H956.78V123.64C956.78 124.547 956.82 125.093 956.9 125.28C956.98 125.44 957.233 125.547 957.66 125.6L959.86 125.88V127H949.1V125.88L951.3 125.6C951.726 125.547 951.98 125.44 952.06 125.28C952.14 125.093 952.18 124.547 952.18 123.64V110.08C952.18 109.173 952.14 108.64 952.06 108.48C951.98 108.293 951.726 108.173 951.3 108.12L949.1 107.84ZM985.364 125.88V127H974.604V125.88L976.804 125.6C977.231 125.547 977.484 125.44 977.564 125.28C977.644 125.093 977.684 124.547 977.684 123.64V113.56C977.684 111.72 977.431 110.387 976.924 109.56C976.418 108.707 975.658 108.28 974.644 108.28C974.218 108.28 973.711 108.4 973.124 108.64C972.538 108.853 971.951 109.253 971.364 109.84C970.804 110.427 970.311 111.293 969.884 112.44V123.64C969.884 124.547 969.924 125.093 970.004 125.28C970.084 125.44 970.338 125.547 970.764 125.6L972.964 125.88V127H962.204V125.88L964.404 125.6C964.831 125.547 965.084 125.44 965.164 125.28C965.244 125.093 965.284 124.547 965.284 123.64V110.08C965.284 109.173 965.244 108.64 965.164 108.48C965.084 108.293 964.831 108.173 964.404 108.12L962.204 107.84V106.72H969.644V110.24C970.391 108.88 971.351 107.893 972.524 107.28C973.698 106.64 974.884 106.32 976.084 106.32C977.524 106.32 978.738 106.693 979.724 107.44C980.738 108.16 981.458 109.2 981.884 110.56C982.604 109.067 983.578 107.987 984.804 107.32C986.031 106.653 987.258 106.32 988.484 106.32C990.378 106.32 991.884 106.947 993.004 108.2C994.124 109.453 994.684 111.227 994.684 113.52V123.64C994.684 124.547 994.724 125.093 994.804 125.28C994.884 125.44 995.138 125.547 995.564 125.6L997.764 125.88V127H987.004V125.88L989.204 125.6C989.631 125.547 989.884 125.44 989.964 125.28C990.044 125.093 990.084 124.547 990.084 123.64V113.56C990.084 111.72 989.831 110.387 989.324 109.56C988.818 108.707 988.058 108.28 987.044 108.28C986.618 108.28 986.111 108.4 985.524 108.64C984.938 108.853 984.351 109.267 983.764 109.88C983.178 110.493 982.671 111.387 982.244 112.56C982.271 112.693 982.284 112.853 982.284 113.04C982.284 113.2 982.284 113.36 982.284 113.52V123.64C982.284 124.547 982.324 125.093 982.404 125.28C982.484 125.44 982.738 125.547 983.164 125.6L985.364 125.88ZM1005.28 103.28C1004.45 103.28 1003.79 103.027 1003.28 102.52C1002.77 101.987 1002.52 101.307 1002.52 100.48C1002.52 99.6533 1002.77 98.9867 1003.28 98.48C1003.79 97.9733 1004.45 97.72 1005.28 97.72C1006.08 97.72 1006.75 97.9733 1007.28 98.48C1007.81 98.9867 1008.08 99.6533 1008.08 100.48C1008.08 101.307 1007.81 101.987 1007.28 102.52C1006.75 103.027 1006.08 103.28 1005.28 103.28ZM999.918 107.84V106.72H1007.6V123.64C1007.6 124.547 1007.64 125.093 1007.72 125.28C1007.8 125.44 1008.05 125.547 1008.48 125.6L1010.68 125.88V127H999.918V125.88L1002.12 125.6C1002.55 125.547 1002.8 125.44 1002.88 125.28C1002.96 125.093 1003 124.547 1003 123.64V110.08C1003 109.173 1002.96 108.64 1002.88 108.48C1002.8 108.293 1002.55 108.173 1002.12 108.12L999.918 107.84ZM1027.26 122.84C1026.92 124.467 1026.25 125.64 1025.26 126.36C1024.3 127.053 1023.13 127.4 1021.74 127.4C1020.33 127.4 1019.17 127.093 1018.26 126.48C1017.36 125.84 1016.69 125 1016.26 123.96C1015.84 122.92 1015.62 121.813 1015.62 120.64V110.08C1015.62 109.173 1015.58 108.64 1015.5 108.48C1015.42 108.293 1015.17 108.173 1014.74 108.12L1012.54 107.84V106.72H1015.62V102.08L1020.22 101.16V106.72H1026.62V108.12H1020.22V121.44C1020.22 123.147 1020.44 124.333 1020.86 125C1021.29 125.64 1021.84 125.96 1022.5 125.96C1023.2 125.96 1023.73 125.693 1024.1 125.16C1024.5 124.627 1024.76 123.653 1024.86 122.24L1027.26 122.84ZM1047.64 122.24C1047.16 124.107 1046.27 125.44 1044.96 126.24C1043.66 127.013 1042.14 127.4 1040.4 127.4C1037.2 127.4 1034.8 126.48 1033.2 124.64C1031.6 122.773 1030.8 120.307 1030.8 117.24V116.44C1030.8 113.373 1031.55 110.92 1033.04 109.08C1034.56 107.24 1036.75 106.32 1039.6 106.32C1041.2 106.32 1042.62 106.64 1043.84 107.28C1045.1 107.893 1046.07 108.787 1046.76 109.96C1047.48 111.133 1047.84 112.56 1047.84 114.24C1047.84 114.64 1047.82 115.067 1047.76 115.52C1047.74 115.973 1047.67 116.427 1047.56 116.88H1035.72V118.04C1035.72 120.867 1036.12 122.907 1036.92 124.16C1037.72 125.387 1039.02 126 1040.8 126C1041.95 126 1042.92 125.667 1043.72 125C1044.52 124.307 1044.98 123.147 1045.08 121.52L1047.64 122.24ZM1039.6 107.72C1038.3 107.72 1037.32 108.32 1036.68 109.52C1036.04 110.72 1035.72 112.707 1035.72 115.48H1042.96C1043.07 114.947 1043.14 114.453 1043.16 114C1043.22 113.52 1043.24 113.08 1043.24 112.68C1043.24 110.973 1042.91 109.72 1042.24 108.92C1041.58 108.12 1040.7 107.72 1039.6 107.72ZM1073.42 125.88V127H1065.98V123.68C1065.23 124.907 1064.39 125.84 1063.46 126.48C1062.55 127.093 1061.47 127.4 1060.22 127.4C1057.98 127.4 1056.19 126.52 1054.86 124.76C1053.55 122.973 1052.9 120.48 1052.9 117.28V116.48C1052.9 113.387 1053.66 110.92 1055.18 109.08C1056.72 107.24 1058.83 106.32 1061.5 106.32C1063.1 106.32 1064.51 106.72 1065.74 107.52V100.76C1065.74 99.8533 1065.7 99.32 1065.62 99.16C1065.54 98.9733 1065.28 98.8533 1064.86 98.8L1062.66 98.52V97.4H1070.34V123.64C1070.34 124.547 1070.38 125.093 1070.46 125.28C1070.54 125.44 1070.79 125.547 1071.22 125.6L1073.42 125.88ZM1057.82 118.48C1057.82 120.96 1058.12 122.773 1058.74 123.92C1059.35 125.067 1060.19 125.64 1061.26 125.64C1061.92 125.64 1062.62 125.373 1063.34 124.84C1064.08 124.28 1064.88 123.16 1065.74 121.48V109.4C1064.72 108.387 1063.48 107.88 1062.02 107.88C1060.55 107.88 1059.48 108.547 1058.82 109.88C1058.15 111.187 1057.82 112.987 1057.82 115.28V118.48Z" fill="black"/>
<g clip-path="url(#clip0_175_6)">
<path d="M15.8715 38.1182C16.9847 36.6217 18.4508 34.5959 19.6249 33.1481C23.1411 29.1574 23.5973 28.6343 26.7972 25.6838C27.7462 24.9052 28.8716 23.9683 29.9727 23.0863C21.8514 29.9604 20.8172 37.5707 28.2693 42.2731C28.2572 42.2731 28.2572 42.2731 28.2572 42.2853C38.6779 48.5633 61.5147 47.2067 79.5336 39.1645C96.9867 31.3778 103.429 20.2393 94.8149 13.6206C87.2533 12.2032 78.2378 12.0389 68.6992 13.3164L67.7076 11.68L68.5288 8.96683C74.1377 8.46192 79.4667 8.58358 84.0657 9.36833C85.1789 9.55692 86.645 9.87933 87.74 10.1105C89.857 10.6276 91.0067 10.9378 92.3877 11.3819C93.799 11.8017 95.0035 12.2214 97.1022 13.0001C99.1584 13.8092 100.047 14.1742 101.695 14.9954C103.541 15.8377 105.335 16.7905 107.067 17.8485C120.791 26.4808 112.256 42.2305 88.0381 53.0223C63.8872 63.7777 33.1117 65.4688 19.3207 56.94C19.3147 56.9278 19.2964 56.9157 19.2599 56.9035H19.2842C11.7531 52.1342 10.9622 45.2113 15.8715 38.1182V38.1182ZM78.7062 98.4648L78.5116 88.768L71.6191 81.103C48.8492 86.2617 26.4687 85.1545 14.0222 77.8241C13.9796 77.7754 13.8762 77.7268 13.8336 77.6781C6.78907 73.3407 5.04924 67.744 5.57849 61.6607C3.92991 70.5606 3.79607 73.7726 4.03332 81.3889C4.32532 86.1583 7.08107 90.5565 12.623 94.024L12.6656 94.0727C25.9333 102.322 53.576 104.11 78.7062 98.4648ZM107.45 109.567C75.3117 122.458 35.0887 123.218 17.6174 111.289C19.5042 115.899 22.0715 120.202 25.2337 124.051C41.2694 135.001 78.1892 134.302 107.675 122.47C124.933 115.553 135.823 106.349 138.682 97.7227L139.485 95.1251C141.389 88.5429 141.748 83.0618 142.052 78.183C141.705 88.7741 129.228 100.819 107.45 109.567V109.567ZM36.5062 134.393C37.516 135.354 40.6915 139.254 56.7819 143.561C61.1315 144.522 72.0815 147.606 92.3086 143.123L92.4302 141.279L90.8303 138.773C72.0632 143.214 51.2157 141.729 36.5062 134.393V134.393ZM82.9463 57.6883L100.034 70.6397C100.034 70.6397 103.69 73.2738 100.241 75.1231C96.8042 76.9542 87.9772 81.4376 87.9772 81.4376L79.2598 78.183L74.8859 80.1297L82.5996 86.8274L82.6604 97.2482L87.1925 95.2346L90.1976 86.432C90.1976 86.432 99.4261 82.8793 103.088 81.541C106.769 80.2331 106.276 84.7104 106.276 84.7104L104.463 106.069L110.486 103.392L120.401 74.5756C120.401 74.5756 125.657 72.0206 129.356 69.7758C133.049 67.5311 134.314 63.8081 134.314 63.8081C134.314 63.8081 130.713 62.2568 126.564 63.5039C122.415 64.7388 117.007 66.941 117.007 66.941L88.9506 55.0238L82.9463 57.6883V57.6883ZM46.7931 16.7109L58.394 25.9515L61.5634 25.477L55.2489 17.1854C55.2489 17.1854 53.8741 15.4699 55.7234 15.0623C57.5849 14.6487 62.2934 13.6875 62.2934 13.6875L65.8339 16.5162L68.2186 16.1634L65.5176 11.8686L66.9411 7.10533L64.6355 7.43992L61.9041 11.0656C61.9041 11.0656 57.1104 11.5158 55.2246 11.6739C53.3266 11.8199 54.1417 9.782 54.1417 9.782L57.7796 0L54.5919 0.468417L46.1969 12.6898C46.1969 12.6898 43.3986 13.2008 41.3728 13.7788C39.341 14.3506 38.2703 15.9201 38.2703 15.9201C38.2703 15.9201 39.7607 17.1246 41.8595 17.082C43.9765 17.0394 46.7931 16.7109 46.7931 16.7109V16.7109ZM104.128 135.445L96.6217 131.522L94.894 132.124L99.3409 136.102C99.3409 136.102 100.29 136.912 99.2922 137.343C98.2946 137.769 95.7517 138.816 95.7517 138.816L93.653 137.879L92.4059 138.329L94.1518 140.19L93.9815 142.91L95.2833 142.459L96.2566 140.251C96.2566 140.251 98.8968 139.466 99.9492 139.187C100.996 138.901 100.758 140.13 100.758 140.13L99.7667 146L101.5 145.398L104.901 137.635C104.901 137.635 106.404 137.045 107.48 136.504C108.557 135.962 108.983 134.965 108.983 134.965C108.983 134.965 108.028 134.442 106.848 134.703C105.661 134.953 104.128 135.445 104.128 135.445Z" fill="#9A2145"/>
</g>
<defs>
<clipPath id="clip0_175_6">
<rect width="146" height="146" fill="white"/>
</clipPath>
</defs>
</svg>
